<mxfile host="app.diagrams.net" modified="2024-04-12T14:21:58.249Z" agent="Mozilla/5.0 (Windows NT 10.0; Win64; x64) AppleWebKit/537.36 (KHTML, like Gecko) Chrome/123.0.0.0 Safari/537.36" etag="POBNNanZ27hZw6hatS3y" version="24.2.3" type="device">
  <diagram name="PÃ¡gina-1" id="2dTJDTTeRMOE5YIe0DLm">
    <mxGraphModel dx="1444" dy="764" grid="1" gridSize="10" guides="1" tooltips="1" connect="1" arrows="1" fold="1" page="1" pageScale="1" pageWidth="827" pageHeight="1169" math="0" shadow="0">
      <root>
        <mxCell id="0" />
        <mxCell id="1" parent="0" />
        <mxCell id="x8AOFaCELixLAaUVQshk-27" style="edgeStyle=orthogonalEdgeStyle;rounded=0;orthogonalLoop=1;jettySize=auto;html=1;exitX=0.5;exitY=0;exitDx=0;exitDy=0;" edge="1" parent="1" source="x8AOFaCELixLAaUVQshk-3" target="x8AOFaCELixLAaUVQshk-9">
          <mxGeometry relative="1" as="geometry" />
        </mxCell>
        <mxCell id="x8AOFaCELixLAaUVQshk-28" style="edgeStyle=orthogonalEdgeStyle;rounded=0;orthogonalLoop=1;jettySize=auto;html=1;exitX=0.75;exitY=0;exitDx=0;exitDy=0;entryX=0.25;entryY=1;entryDx=0;entryDy=0;" edge="1" parent="1" source="x8AOFaCELixLAaUVQshk-3" target="x8AOFaCELixLAaUVQshk-11">
          <mxGeometry relative="1" as="geometry" />
        </mxCell>
        <mxCell id="x8AOFaCELixLAaUVQshk-29" style="edgeStyle=orthogonalEdgeStyle;rounded=0;orthogonalLoop=1;jettySize=auto;html=1;exitX=0.25;exitY=1;exitDx=0;exitDy=0;entryX=0.25;entryY=0;entryDx=0;entryDy=0;" edge="1" parent="1" source="x8AOFaCELixLAaUVQshk-3" target="x8AOFaCELixLAaUVQshk-17">
          <mxGeometry relative="1" as="geometry" />
        </mxCell>
        <mxCell id="x8AOFaCELixLAaUVQshk-30" style="edgeStyle=orthogonalEdgeStyle;rounded=0;orthogonalLoop=1;jettySize=auto;html=1;exitX=0.75;exitY=1;exitDx=0;exitDy=0;entryX=0.25;entryY=0;entryDx=0;entryDy=0;" edge="1" parent="1" source="x8AOFaCELixLAaUVQshk-3" target="x8AOFaCELixLAaUVQshk-20">
          <mxGeometry relative="1" as="geometry" />
        </mxCell>
        <mxCell id="x8AOFaCELixLAaUVQshk-3" value="alunos" style="swimlane;whiteSpace=wrap;html=1;" vertex="1" parent="1">
          <mxGeometry x="100" y="290" width="200" height="200" as="geometry" />
        </mxCell>
        <mxCell id="x8AOFaCELixLAaUVQshk-4" value="&lt;u&gt;&lt;span style=&quot;font-size:11.0pt;line-height:106%;&lt;br/&gt;font-family:&amp;quot;Calibri&amp;quot;,sans-serif;mso-ascii-theme-font:minor-latin;mso-fareast-font-family:&lt;br/&gt;Calibri;mso-fareast-theme-font:minor-latin;mso-hansi-theme-font:minor-latin;&lt;br/&gt;mso-bidi-font-family:&amp;quot;Times New Roman&amp;quot;;mso-bidi-theme-font:minor-bidi;&lt;br/&gt;mso-ansi-language:PT-BR;mso-fareast-language:EN-US;mso-bidi-language:AR-SA&quot;&gt;numMatricula&lt;/span&gt;&lt;/u&gt;&lt;span style=&quot;font-size:11.0pt;line-height:106%;font-family:&amp;quot;Calibri&amp;quot;,sans-serif;&lt;br/&gt;mso-ascii-theme-font:minor-latin;mso-fareast-font-family:Calibri;mso-fareast-theme-font:&lt;br/&gt;minor-latin;mso-hansi-theme-font:minor-latin;mso-bidi-font-family:&amp;quot;Times New Roman&amp;quot;;&lt;br/&gt;mso-bidi-theme-font:minor-bidi;mso-ansi-language:PT-BR;mso-fareast-language:&lt;br/&gt;EN-US;mso-bidi-language:AR-SA&quot;&gt;, nome, email, Turma&amp;nbsp;&lt;/span&gt;" style="text;html=1;align=center;verticalAlign=middle;whiteSpace=wrap;rounded=0;" vertex="1" parent="x8AOFaCELixLAaUVQshk-3">
          <mxGeometry x="40" y="60" width="120" height="100" as="geometry" />
        </mxCell>
        <mxCell id="x8AOFaCELixLAaUVQshk-31" style="edgeStyle=orthogonalEdgeStyle;rounded=0;orthogonalLoop=1;jettySize=auto;html=1;exitX=0.25;exitY=0;exitDx=0;exitDy=0;entryX=0.75;entryY=1;entryDx=0;entryDy=0;" edge="1" parent="1" source="x8AOFaCELixLAaUVQshk-5" target="x8AOFaCELixLAaUVQshk-7">
          <mxGeometry relative="1" as="geometry" />
        </mxCell>
        <mxCell id="x8AOFaCELixLAaUVQshk-32" style="edgeStyle=orthogonalEdgeStyle;rounded=0;orthogonalLoop=1;jettySize=auto;html=1;exitX=0.75;exitY=0;exitDx=0;exitDy=0;entryX=0.75;entryY=1;entryDx=0;entryDy=0;" edge="1" parent="1" source="x8AOFaCELixLAaUVQshk-5" target="x8AOFaCELixLAaUVQshk-11">
          <mxGeometry relative="1" as="geometry" />
        </mxCell>
        <mxCell id="x8AOFaCELixLAaUVQshk-33" style="edgeStyle=orthogonalEdgeStyle;rounded=0;orthogonalLoop=1;jettySize=auto;html=1;exitX=0.25;exitY=1;exitDx=0;exitDy=0;entryX=0.75;entryY=0;entryDx=0;entryDy=0;" edge="1" parent="1" source="x8AOFaCELixLAaUVQshk-5" target="x8AOFaCELixLAaUVQshk-17">
          <mxGeometry relative="1" as="geometry" />
        </mxCell>
        <mxCell id="x8AOFaCELixLAaUVQshk-5" value="professor" style="swimlane;whiteSpace=wrap;html=1;" vertex="1" parent="1">
          <mxGeometry x="580" y="310" width="200" height="200" as="geometry" />
        </mxCell>
        <mxCell id="x8AOFaCELixLAaUVQshk-6" value="&lt;u&gt;&lt;span style=&quot;font-size:11.0pt;line-height:106%;&lt;br/&gt;font-family:&amp;quot;Calibri&amp;quot;,sans-serif;mso-ascii-theme-font:minor-latin;mso-fareast-font-family:&lt;br/&gt;Calibri;mso-fareast-theme-font:minor-latin;mso-hansi-theme-font:minor-latin;&lt;br/&gt;mso-bidi-font-family:&amp;quot;Times New Roman&amp;quot;;mso-bidi-theme-font:minor-bidi;&lt;br/&gt;mso-ansi-language:PT-BR;mso-fareast-language:EN-US;mso-bidi-language:AR-SA&quot;&gt;nif&lt;/span&gt;&lt;/u&gt;&lt;span style=&quot;font-size:11.0pt;line-height:106%;font-family:&amp;quot;Calibri&amp;quot;,sans-serif;&lt;br/&gt;mso-ascii-theme-font:minor-latin;mso-fareast-font-family:Calibri;mso-fareast-theme-font:&lt;br/&gt;minor-latin;mso-hansi-theme-font:minor-latin;mso-bidi-font-family:&amp;quot;Times New Roman&amp;quot;;&lt;br/&gt;mso-bidi-theme-font:minor-bidi;mso-ansi-language:PT-BR;mso-fareast-language:&lt;br/&gt;EN-US;mso-bidi-language:AR-SA&quot;&gt;, nome, email, senha&lt;/span&gt;" style="text;html=1;align=center;verticalAlign=middle;whiteSpace=wrap;rounded=0;" vertex="1" parent="x8AOFaCELixLAaUVQshk-5">
          <mxGeometry x="70" y="70" width="60" height="30" as="geometry" />
        </mxCell>
        <mxCell id="x8AOFaCELixLAaUVQshk-7" value="&lt;b&gt;&lt;span style=&quot;font-size: 11pt; line-height: 106%; font-family: Calibri, sans-serif;&quot;&gt;resultado_engrenagem_dentes_conicos&lt;/span&gt;&lt;/b&gt;&lt;span style=&quot;font-size: 11pt; line-height: 106%; font-family: Calibri, sans-serif;&quot;&gt;&lt;/span&gt;" style="swimlane;whiteSpace=wrap;html=1;" vertex="1" parent="1">
          <mxGeometry x="70" y="20" width="270" height="200" as="geometry" />
        </mxCell>
        <mxCell id="x8AOFaCELixLAaUVQshk-9" value="&#xa;&lt;u&gt;&lt;span style=&quot;font-size:11.0pt;line-height:106%;&#xa;font-family:&amp;quot;Calibri&amp;quot;,sans-serif;mso-ascii-theme-font:minor-latin;mso-fareast-font-family:&#xa;Calibri;mso-fareast-theme-font:minor-latin;mso-hansi-theme-font:minor-latin;&#xa;mso-bidi-theme-font:minor-latin;color:black;mso-themecolor:text1;mso-style-textoutline-type:&#xa;none;mso-style-textoutline-outlinestyle-dpiwidth:0pt;mso-style-textoutline-outlinestyle-linecap:&#xa;flat;mso-style-textoutline-outlinestyle-join:round;mso-style-textoutline-outlinestyle-pctmiterlimit:&#xa;0%;mso-style-textoutline-outlinestyle-dash:solid;mso-style-textoutline-outlinestyle-align:&#xa;center;mso-style-textoutline-outlinestyle-compound:simple;mso-ansi-language:&#xa;PT-BR;mso-fareast-language:EN-US;mso-bidi-language:AR-SA&quot;&gt;id&lt;/span&gt;&lt;/u&gt;&lt;span style=&quot;font-size:11.0pt;line-height:106%;font-family:&amp;quot;Calibri&amp;quot;,sans-serif;&#xa;mso-ascii-theme-font:minor-latin;mso-fareast-font-family:Calibri;mso-fareast-theme-font:&#xa;minor-latin;mso-hansi-theme-font:minor-latin;mso-bidi-theme-font:minor-latin;&#xa;color:black;mso-themecolor:text1;mso-style-textoutline-type:none;mso-style-textoutline-outlinestyle-dpiwidth:&#xa;0pt;mso-style-textoutline-outlinestyle-linecap:flat;mso-style-textoutline-outlinestyle-join:&#xa;round;mso-style-textoutline-outlinestyle-pctmiterlimit:0%;mso-style-textoutline-outlinestyle-dash:&#xa;solid;mso-style-textoutline-outlinestyle-align:center;mso-style-textoutline-outlinestyle-compound:&#xa;simple;mso-ansi-language:PT-BR;mso-fareast-language:EN-US;mso-bidi-language:&#xa;AR-SA&quot;&gt;, circuloPrimitivo1, circuloPrimitivo2, anguloConeCabe1, anguloConeCabe2,&#xa;anguloPrimitivo1,&lt;span style=&quot;mso-spacerun:yes&quot;&gt;&amp;nbsp; &lt;/span&gt;anguloPrimitivo2, anguloEixo&lt;span style=&quot;mso-spacerun:yes&quot;&gt;&amp;nbsp; &lt;/span&gt;&lt;/span&gt;&#xa;&#xa;&#xa;&#xa;" style="text;html=1;align=center;verticalAlign=middle;whiteSpace=wrap;rounded=0;" vertex="1" parent="x8AOFaCELixLAaUVQshk-7">
          <mxGeometry x="105" y="110" width="60" height="30" as="geometry" />
        </mxCell>
        <mxCell id="x8AOFaCELixLAaUVQshk-11" value="&lt;b&gt;&lt;span style=&quot;font-size: 11pt; line-height: 106%; font-family: Calibri, sans-serif;&quot;&gt;resultado_engrenagem_dentes_helicoidas&lt;/span&gt;&lt;/b&gt;&lt;span style=&quot;font-size: 11pt; line-height: 106%; font-family: Calibri, sans-serif;&quot;&gt;&lt;/span&gt;" style="swimlane;whiteSpace=wrap;html=1;" vertex="1" parent="1">
          <mxGeometry x="470" width="300" height="200" as="geometry" />
        </mxCell>
        <mxCell id="x8AOFaCELixLAaUVQshk-16" value="&lt;u&gt;&lt;span style=&quot;font-size: 11pt; line-height: 106%; font-family: Calibri, sans-serif;&quot;&gt;id&lt;/span&gt;&lt;/u&gt;&lt;span style=&quot;font-size: 11pt; line-height: 106%; font-family: Calibri, sans-serif;&quot;&gt;, circuloPrimitivo1, circuloPrimitivo2, moduloNormal, passoNormal, passoHelicoidal&lt;/span&gt;" style="text;html=1;align=center;verticalAlign=middle;whiteSpace=wrap;rounded=0;" vertex="1" parent="x8AOFaCELixLAaUVQshk-11">
          <mxGeometry x="120" y="70" width="60" height="30" as="geometry" />
        </mxCell>
        <mxCell id="x8AOFaCELixLAaUVQshk-17" value="&lt;b&gt;&lt;span style=&quot;font-size: 11pt; line-height: 106%; font-family: Calibri, sans-serif;&quot;&gt;resultado_engrenagem_dentes_retos&amp;nbsp;&lt;/span&gt;&lt;/b&gt;" style="swimlane;whiteSpace=wrap;html=1;" vertex="1" parent="1">
          <mxGeometry x="80" y="600" width="250" height="240" as="geometry" />
        </mxCell>
        <mxCell id="x8AOFaCELixLAaUVQshk-18" value="&lt;u&gt;&lt;span style=&quot;font-size: 11pt; line-height: 106%; font-family: Calibri, sans-serif;&quot;&gt;id&lt;/span&gt;&lt;/u&gt;&lt;span style=&quot;font-size: 11pt; line-height: 106%; font-family: Calibri, sans-serif;&quot;&gt;,&lt;/span&gt;&lt;span style=&quot;font-size:11.0pt;line-height:106%;font-family:&amp;quot;Calibri&amp;quot;,sans-serif;&lt;br/&gt;mso-ascii-theme-font:minor-latin;mso-fareast-font-family:Calibri;mso-fareast-theme-font:&lt;br/&gt;minor-latin;mso-hansi-theme-font:minor-latin;mso-bidi-font-family:&amp;quot;Times New Roman&amp;quot;;&lt;br/&gt;mso-bidi-theme-font:minor-bidi;mso-ansi-language:PT-BR;mso-fareast-language:&lt;br/&gt;EN-US;mso-bidi-language:AR-SA&quot;&gt; &lt;/span&gt;&lt;span style=&quot;font-size: 11pt; line-height: 106%; font-family: Calibri, sans-serif;&quot;&gt;circuloPrimitivo1, passo, folgadacabeÃ§a, alturacabeÃ§adente, alturapedente,&lt;br/&gt;alturadente, circulocabeÃ§a , circulope, disteciadoseixos, circulodacabecainterno,&lt;br/&gt;circulopeinterno, disteciadoseixosinterno&amp;nbsp;&lt;/span&gt;" style="text;html=1;align=center;verticalAlign=middle;whiteSpace=wrap;rounded=0;" vertex="1" parent="x8AOFaCELixLAaUVQshk-17">
          <mxGeometry x="95" y="100" width="60" height="30" as="geometry" />
        </mxCell>
        <mxCell id="x8AOFaCELixLAaUVQshk-20" value="&lt;b&gt;&lt;span style=&quot;font-size: 11pt; line-height: 106%; font-family: Calibri, sans-serif;&quot;&gt;resultado_transmicoes&lt;/span&gt;&lt;/b&gt;&lt;span style=&quot;font-size: 11pt; line-height: 106%; font-family: Calibri, sans-serif;&quot;&gt;&lt;/span&gt;" style="swimlane;whiteSpace=wrap;html=1;" vertex="1" parent="1">
          <mxGeometry x="490" y="570" width="240" height="210" as="geometry" />
        </mxCell>
        <mxCell id="x8AOFaCELixLAaUVQshk-21" value="&lt;u&gt;&lt;span style=&quot;font-size: 11pt; line-height: 106%; font-family: Calibri, sans-serif;&quot;&gt;id,&lt;/span&gt;&lt;/u&gt;&lt;span style=&quot;font-size: 11pt; line-height: 106%; font-family: Calibri, sans-serif;&quot;&gt; itotal, iIndividuais&lt;/span&gt;" style="text;html=1;align=center;verticalAlign=middle;whiteSpace=wrap;rounded=0;" vertex="1" parent="x8AOFaCELixLAaUVQshk-20">
          <mxGeometry x="70" y="65" width="60" height="30" as="geometry" />
        </mxCell>
        <mxCell id="x8AOFaCELixLAaUVQshk-34" style="edgeStyle=orthogonalEdgeStyle;rounded=0;orthogonalLoop=1;jettySize=auto;html=1;exitX=0.75;exitY=1;exitDx=0;exitDy=0;entryX=0.896;entryY=-0.009;entryDx=0;entryDy=0;entryPerimeter=0;" edge="1" parent="1" source="x8AOFaCELixLAaUVQshk-5" target="x8AOFaCELixLAaUVQshk-20">
          <mxGeometry relative="1" as="geometry" />
        </mxCell>
      </root>
    </mxGraphModel>
  </diagram>
</mxfile>
